<?xml version="1.0" encoding="utf-8"?>
<!-- Generator: Adobe Illustrator 28.2.0, SVG Export Plug-In . SVG Version: 6.00 Build 0)  -->
<svg version="1.1" id="Слой_1" xmlns="http://www.w3.org/2000/svg" xmlns:xlink="http://www.w3.org/1999/xlink" x="0px" y="0px"
	 viewBox="0 0 300 140" style="enable-background:new 0 0 300 140;" xml:space="preserve">
<style type="text/css">
	.st0{fill:#FFFFFF;}
</style>
<g>
	<g>
		<path class="st0" d="M39.79,131.68c-0.14,1.52-0.7,2.71-1.68,3.56c-0.98,0.85-2.28,1.28-3.9,1.28c-1.14,0-2.13-0.27-3-0.81
			c-0.86-0.54-1.53-1.3-2-2.29c-0.47-0.99-0.71-2.14-0.73-3.45v-1.33c0-1.34,0.24-2.53,0.71-3.55c0.48-1.02,1.16-1.81,2.05-2.37
			c0.89-0.55,1.92-0.83,3.09-0.83c1.57,0,2.84,0.43,3.8,1.28c0.96,0.85,1.52,2.06,1.67,3.62h-2.47c-0.12-1.02-0.42-1.76-0.9-2.22
			c-0.48-0.45-1.18-0.68-2.11-0.68c-1.08,0-1.9,0.39-2.48,1.18c-0.58,0.79-0.87,1.94-0.89,3.46v1.26c0,1.54,0.28,2.72,0.83,3.53
			c0.55,0.81,1.36,1.21,2.42,1.21c0.97,0,1.7-0.22,2.19-0.66c0.49-0.44,0.8-1.16,0.93-2.18H39.79z"/>
		<path class="st0" d="M47.42,122.08L51.52,133l4.1-10.92h3.2v14.25h-2.47v-4.7l0.24-6.28l-4.21,10.98h-1.77l-4.2-10.97l0.24,6.27
			v4.7h-2.47v-14.25H47.42z"/>
		<path class="st0" d="M75.32,129.57c0,1.4-0.24,2.62-0.72,3.67c-0.48,1.05-1.17,1.86-2.07,2.43c-0.9,0.56-1.93,0.85-3.1,0.85
			c-1.15,0-2.18-0.28-3.09-0.85c-0.9-0.56-1.6-1.37-2.09-2.41c-0.49-1.04-0.74-2.25-0.75-3.61v-0.8c0-1.39,0.25-2.62,0.74-3.68
			c0.49-1.06,1.19-1.88,2.08-2.44c0.9-0.56,1.93-0.85,3.09-0.85c1.16,0,2.19,0.28,3.09,0.84c0.9,0.56,1.59,1.36,2.08,2.41
			c0.49,1.05,0.74,2.27,0.74,3.65V129.57z M72.85,128.83c0-1.58-0.3-2.79-0.9-3.63c-0.6-0.84-1.44-1.26-2.54-1.26
			c-1.07,0-1.91,0.42-2.51,1.26c-0.6,0.84-0.91,2.02-0.92,3.56v0.82c0,1.57,0.3,2.78,0.91,3.63c0.61,0.85,1.46,1.28,2.54,1.28
			c1.1,0,1.94-0.42,2.53-1.25c0.59-0.84,0.89-2.05,0.89-3.66V128.83z"/>
		<path class="st0" d="M89.46,124.07h-4.44v12.25h-2.46v-12.25h-4.4v-2h11.3V124.07z"/>
		<path class="st0" d="M96.01,131.04v5.28h-2.48v-14.25h5.45c1.59,0,2.86,0.41,3.79,1.24c0.94,0.83,1.4,1.93,1.4,3.29
			c0,1.4-0.46,2.48-1.37,3.26c-0.92,0.78-2.2,1.17-3.85,1.17H96.01z M96.01,129.04h2.97c0.88,0,1.55-0.21,2.02-0.62
			c0.46-0.41,0.69-1.01,0.69-1.8c0-0.77-0.23-1.38-0.7-1.84c-0.47-0.46-1.12-0.7-1.94-0.71h-3.04V129.04z"/>
		<path class="st0" d="M117.27,122.08h2.48v14.25h-2.48v-10.15l-6.25,10.15h-2.48v-14.25h2.48v10.16L117.27,122.08z"/>
	</g>
	<g>
		<path class="st0" d="M187.5,3.62c-0.83,7.69-8.89,55.35-10.23,62.75c-0.03,0.18-0.29,0.18-0.32,0
			c-1.21-7.16-9.34-55.17-10.16-62.75c-0.01-0.08-0.08-0.14-0.16-0.14h-24.68c-0.1,0-0.18,0.08-0.16,0.18
			c1.03,5.17,15.8,93.29,16.66,99.83c0.01,0.08,0.08,0.13,0.16,0.13h36.44c0.08,0,0.15-0.05,0.16-0.13
			c0.87-6.54,16.23-94.66,17.28-99.83c0.02-0.1-0.06-0.18-0.16-0.18h-24.67C187.58,3.48,187.51,3.54,187.5,3.62z"/>
		<path class="st0" d="M131.43,40.77v62.71c0,0.09-0.07,0.16-0.16,0.16H99.44c-0.09,0-0.16-0.07-0.16-0.16V62.96
			c0-0.05,0.03-0.1,0.07-0.13l31.83-22.19C131.29,40.57,131.43,40.64,131.43,40.77z"/>
		<path class="st0" d="M131.43,3.99v24.16c0,0.16-0.21,0.21-0.29,0.08c-10.22-16.12-44.28,14.29-42,8.18
			c5.45-14.56,9.18-28.97,2.26-32.28c-0.15-0.07-0.1-0.3,0.07-0.3h39.8C131.36,3.83,131.43,3.9,131.43,3.99z"/>
		<path class="st0" d="M80.64,69.65v33.85c0,0.09-0.07,0.16-0.16,0.16H27.63c-0.09,0-0.16-0.07-0.16-0.16V4.08
			c0-0.09,0.07-0.16,0.16-0.16l31.34-0.09c4.43,0,7.62,5.09,6.41,10.21L51.42,87.47c-0.2,1.12,1.11,1.87,1.96,1.13
			c5.5-4.68,18.57-13.5,27.02-19.09C80.51,69.44,80.64,69.52,80.64,69.65z"/>
		<path class="st0" d="M248.3,22.52l-0.5,15.65c0,0.11,0.11,0.19,0.22,0.15c2.72-0.89,5.25-1.53,7.55-1.92
			c5.85-0.99,10.13-0.35,11.9,2.2c3.08,4.45-2.25,13.59-12.74,23.48c-2.39,2.26-5.05,4.55-7.93,6.83l-0.01,0.29l-0.59,18.25
			c-0.21,1.12,1.13,1.87,2.01,1.13c5.66-4.68,19.13-13.51,27.82-19.1c0.11-0.07,0.25,0.01,0.25,0.14v33.86
			c0,0.09-0.07,0.16-0.16,0.16h-54.42c-0.09,0-0.16-0.07-0.16-0.16V3.81c0-0.09,0.07-0.16,0.16-0.16h54.42
			c0.09,0,0.16,0.07,0.16,0.16v18.4c0,0.09-0.07,0.16-0.16,0.16h-27.65C248.38,22.37,248.3,22.44,248.3,22.52z"/>
	</g>
	<g>
		<path class="st0" d="M166.35,136.32h-2.47V130h-6.37v6.32h-2.48v-14.25h2.48V128h6.37v-5.93h2.47V136.32z"/>
		<path class="st0" d="M179.63,133.01h-5.52l-1.15,3.32h-2.57l5.38-14.25h2.22l5.39,14.25h-2.58L179.63,133.01z M174.81,131.01h4.13
			l-2.06-5.91L174.81,131.01z"/>
		<path class="st0" d="M219.18,122.08l4.11,10.92l4.1-10.92h3.2v14.25h-2.47v-4.7l0.24-6.28l-4.21,10.98h-1.77l-4.2-10.97l0.24,6.27
			v4.7h-2.47v-14.25H219.18z"/>
		<path class="st0" d="M244.05,129.96h-5.85v4.38h6.84v1.98h-9.32v-14.25h9.25v2h-6.77V128h5.85V129.96z"/>
		<path class="st0" d="M260.57,136.32h-2.47V130h-6.37v6.32h-2.48v-14.25h2.48V128h6.37v-5.93h2.47V136.32z"/>
		<path class="st0" d="M272.73,136.32V131h-2.76l-2.75,5.32h-2.65l3.18-6.06c-1.66-0.78-2.49-2.06-2.49-3.85
			c0-1.36,0.45-2.42,1.35-3.18c0.9-0.76,2.15-1.15,3.75-1.16h4.84v14.25H272.73z M267.73,126.53c0,0.8,0.23,1.43,0.68,1.88
			c0.45,0.45,1.13,0.68,2.03,0.68h2.3v-5.01h-2.3c-0.91,0-1.59,0.22-2.04,0.66C267.95,125.16,267.73,125.76,267.73,126.53z"/>
	</g>
</g>
</svg>
